Coordinates
version=1
nRows=9
nColumns=63
inDegrees=yes

Units are S.I. units (second, meters, Newtons, ...)
If the header above contains a line with 'inDegrees', this indicates whether rotational values are in degrees (yes) or radians (no).

endheader
time	pelvis_tilt	pelvis_list	pelvis_rotation	pelvis_tx	pelvis_ty	pelvis_tz	hip_flexion_r	hip_adduction_r	hip_rotation_r	knee_angle_r	knee_angle_r_beta	ankle_angle_r	subtalar_angle_r	mtp_angle_r	hip_flexion_l	hip_adduction_l	hip_rotation_l	knee_angle_l	knee_angle_l_beta	ankle_angle_l	subtalar_angle_l	mtp_angle_l	L5_S1_Flex_Ext	L5_S1_Lat_Bending	L5_S1_axial_rotation	L4_L5_Flex_Ext	L4_L5_Lat_Bending	L4_L5_axial_rotation	L3_L4_Flex_Ext	L3_L4_Lat_Bending	L3_L4_axial_rotation	L2_L3_Flex_Ext	L2_L3_Lat_Bending	L2_L3_axial_rotation	L1_L2_Flex_Ext	L1_L2_Lat_Bending	L1_L2_axial_rotation	L1_T12_Flex_Ext	L1_T12_Lat_Bending	L1_T12_axial_rotation	Abs_r3	Abs_r2	Abs_r1	Abs_t1	Abs_t2	neck_flexion	neck_bending	neck_rotation	arm_flex_r	arm_add_r	arm_rot_r	elbow_flex_r	pro_sup_r	wrist_flex_r	wrist_dev_r	arm_flex_l	arm_add_l	arm_rot_l	elbow_flex_l	pro_sup_l	wrist_flex_l	wrist_dev_l
     14.20000000	      5.80970268	      4.91246106	    189.44649283	      0.45133969	      0.87641828	      0.64927205	     32.95119345	     -0.69109251	    -19.94827320	     15.68321152	      0.27372368	      7.46983830	     -2.62682746	      0.00000000	     -1.27388601	     -4.91663549	      0.05443997	     27.74277751	      0.48420281	     25.63503026	    -13.32055721	      0.00000000	      0.00265944	      0.39410545	     -2.28796055	      0.00493884	      0.52416025	     -2.43095809	      0.00436919	      0.95822800	     -2.43095809	      0.00303947	      0.95822800	     -2.00196548	      0.00246955	      0.80365984	     -1.85896795	      0.00151960	      0.61046935	     -1.71597041	      0.01899610	      4.45819970	    -12.72495019	      0.00000000	      0.00000000	      0.00000000	      0.00000000	      0.00000000	    -18.04608217	    -12.92327922	     16.49877215	     23.81724219	     52.04470332	      0.00000000	      5.00000014	     10.29282868	    -20.31246906	     13.13110579	     40.54584074	     52.10319127	      0.00000000	      5.00000014
     14.23333333	      5.63433831	      5.30994442	    189.08318577	      0.40961815	      0.87619037	      0.64519511	     31.44366705	      0.77730553	    -20.26579143	     16.07946502	      0.28063961	      8.34220787	     -1.53527408	      0.00000000	      0.00524341	     -5.53772693	      2.12070686	     35.49948093	      0.61958282	     20.96817463	    -17.80483699	      0.00000000	      0.00278146	      0.44271363	     -2.24905421	      0.00516544	      0.58880912	     -2.38962009	      0.00456966	      1.07641391	     -2.38962009	      0.00317893	      1.07641391	     -1.96792243	      0.00258286	      0.90278163	     -1.82735654	      0.00158932	      0.68576341	     -1.68679065	      0.01986767	      5.00806509	    -12.50856478	      0.00000000	      0.00000000	      0.00000000	      0.00000000	      0.00000000	    -18.08931987	    -13.40542765	     16.72732908	     24.42511837	     51.93877770	      0.00000000	      5.00000014	      9.44807819	    -19.87247097	     12.42112934	     41.78269714	     52.11817467	      0.00000000	      5.00000014
     14.26666667	      5.40665426	      5.52582305	    187.88107080	      0.36680461	      0.87764659	      0.64021921	     29.50312133	      2.35405780	    -19.90369901	     16.98096972	      0.29637383	      9.37674963	     -0.20161844	      0.00000000	      2.14374441	     -6.27125474	      2.46839662	     44.19687488	      0.77138099	     14.66078179	    -18.83158001	      0.00000000	      0.00433589	      0.47962030	     -2.05055310	      0.00805218	      0.63789500	     -2.17871267	      0.00712344	      1.16614881	     -2.17871267	      0.00495549	      1.16614881	     -1.79423397	      0.00402631	      0.97804172	     -1.66607440	      0.00247753	      0.74293185	     -1.53791483	      0.03097084	      5.42556080	    -11.40456120	      0.00000000	      0.00000000	      0.00000000	      0.00000000	      0.00000000	    -17.51844278	    -13.78193579	     16.69421290	     24.56712517	     51.85388795	      0.00000000	      5.00000014	      7.90565265	    -19.14474634	     11.57139752	     42.53903809	     52.02262410	      0.00000000	      5.00000014
     14.30000000	      5.09586182	      5.52638294	    186.94628655	      0.32397185	      0.88028042	      0.63638054	     26.89960462	      2.86981400	    -23.15694534	     18.13191435	      0.31646161	     11.72312684	      6.22803567	      0.00000000	      5.33636886	     -6.63157902	      3.26473941	     53.14199485	      0.92750278	      7.01252434	    -19.09256199	      0.00000000	      0.00339339	      0.50181941	     -1.91332593	      0.00630187	      0.66741981	     -2.03290881	      0.00557501	      1.22012370	     -2.03290881	      0.00387831	      1.22012370	     -1.67416019	      0.00315111	      1.02331013	     -1.55457732	      0.00193899	      0.77731826	     -1.43499445	      0.02423867	      5.67668148	    -10.64134485	      0.00000000	      0.00000000	      0.00000000	      0.00000000	      0.00000000	    -16.42027392	    -14.28571794	     16.62187040	     24.93390657	     51.19408016	      0.00000000	      5.00000014	      5.39357826	    -17.35927794	      7.65451105	     42.93541329	     51.66336337	      0.00000000	      5.00000014
     14.33333333	      4.70972326	      5.24405856	    185.34813865	      0.28186593	      0.88360548	      0.63202629	     23.93429065	      3.79074596	    -22.54782641	     18.70647725	      0.32648962	     13.30034225	      7.90798789	      0.00000000	      8.89707799	     -6.86753861	      2.74168205	     61.02913500	      1.06515935	      0.42956864	    -19.06576038	      0.00000000	      0.00244386	      0.48998514	     -1.60594656	      0.00453849	      0.65168024	     -1.70631822	      0.00401502	      1.19134988	     -1.70631822	      0.00279309	      1.19134988	     -1.40520324	      0.00226937	      0.99917770	     -1.30483158	      0.00139642	      0.75898699	     -1.20445992	      0.01745624	      5.54280993	     -8.93179299	      0.00000000	      0.00000000	      0.00000000	      0.00000000	      0.00000000	    -14.82582052	    -14.60847240	     16.26161406	     25.03940469	     50.94260986	      0.00000000	      5.00000014	      2.90953871	    -15.64819612	      4.57350894	     42.64586707	     51.29078786	      0.00000000	      5.00000014
     14.36666667	      4.23168651	      4.67717591	    183.55507316	      0.24117799	      0.88712175	      0.62790807	     20.60225001	      4.28615508	    -21.67941957	     18.93660638	      0.33050613	     15.12685184	      9.77480044	      0.00000000	     12.59615084	     -7.28538285	      0.89497110	     67.37995226	      1.17600202	     -2.88701330	    -18.87984001	      0.00000000	      0.00138076	      0.43818662	     -1.21684006	      0.00256420	      0.58278821	     -1.29289257	      0.00226844	      1.06540696	     -1.29289257	      0.00157807	      1.06540696	     -1.06473506	      0.00128217	      0.89355016	     -0.98868255	      0.00078896	      0.67875108	     -0.91263005	      0.00986260	      4.95685472	     -6.76769938	      0.00000000	      0.00000000	      0.00000000	      0.00000000	      0.00000000	    -12.70879334	    -14.81037468	     16.08234782	     24.92190034	     50.65556970	      0.00000000	      5.00000014	      0.42058696	    -14.01084501	      1.52961428	     41.87846156	     50.96164420	      0.00000000	      5.00000014
     14.40000000	      3.72901303	      3.99877235	    182.33341990	      0.20271011	      0.89047810	      0.62502626	     17.12196452	      4.38546804	    -20.27579206	     18.72155623	      0.32675280	     16.99933583	     10.58952916	      0.00000000	     16.65975715	     -7.77854724	     -1.00887477	     72.05683286	      1.25762898	     -2.95415886	    -18.58712923	      0.00000000	      0.00031205	      0.36729817	     -0.87438690	      0.00057951	      0.48850657	     -0.92903608	      0.00051266	      0.89304878	     -0.92903608	      0.00035664	      0.89304878	     -0.76508854	      0.00028977	      0.74899444	     -0.71043935	      0.00017830	      0.56894487	     -0.65579017	      0.00222893	      4.15495040	     -4.86307761	      0.00000000	      0.00000000	      0.00000000	      0.00000000	      0.00000000	    -10.22324052	    -14.95437228	     15.84522182	     24.87823075	     50.59369263	      0.00000000	      5.00000014	     -1.64650729	    -13.21543363	      0.97107800	     40.34093711	     50.89199837	      0.00000000	      5.00000014
     14.43333333	      3.30959052	      3.16000900	    179.99377273	      0.16615949	      0.89358118	      0.62163371	     13.80293615	      4.41341940	    -17.22055396	     18.33125342	      0.31994073	     18.39148939	     10.68905738	      0.00000000	     20.29441286	     -8.89453155	     -4.88431932	     74.17572191	      1.29461057	      0.08021453	    -18.07278265	      0.00000000	     -0.00129598	      0.27185880	     -0.27500684	     -0.00240676	      0.36157221	     -0.29219477	     -0.00212916	      0.66099749	     -0.29219477	     -0.00148117	      0.66099749	     -0.24063099	     -0.00120344	      0.55437447	     -0.22344306	     -0.00074052	      0.42110928	     -0.20625513	     -0.00925702	      3.07532113	     -1.52950556	      0.00000000	      0.00000000	      0.00000000	      0.00000000	      0.00000000	     -7.40885569	    -15.07727796	     16.05996892	     24.64268569	     50.48344073	      0.00000000	      5.00000014	     -3.63976553	    -11.85545123	     -2.00970154	     38.48021207	     50.56378982	      0.00000000	      5.00000014
     14.46666667	      3.16043145	      2.40739624	    178.75055389	      0.13220658	      0.89590101	      0.62004591	     10.91655645	      4.07327667	    -14.76060873	     17.77330832	      0.31020275	     19.66051263	     10.12913906	      0.00000000	     24.25992055	     -9.67431366	     -7.60145397	     73.48680403	      1.28258669	      4.48591029	    -16.88314032	      0.00000000	     -0.00261878	      0.18635452	      0.16037948	     -0.00486334	      0.24785151	      0.17040319	     -0.00430240	      0.45310238	      0.17040319	     -0.00299301	      0.45310238	      0.14033204	     -0.00243180	      0.38001413	      0.13030832	     -0.00149637	      0.28866315	      0.12028461	     -0.01870571	      2.10807959	      0.89198253	      0.00000000	      0.00000000	      0.00000000	      0.00000000	      0.00000000	     -4.45171255	    -15.15490658	     15.80141119	     24.71823201	     50.22695022	      0.00000000	      5.00000014	     -5.08439225	    -11.55811855	     -1.85410408	     35.94195673	     50.65762989	      0.00000000	      5.00000014
